<mxfile host="app.diagrams.net" agent="Mozilla/5.0 (Macintosh; Intel Mac OS X 10_15_7) AppleWebKit/537.36 (KHTML, like Gecko) Chrome/129.0.0.0 Safari/537.36" version="24.7.17">
  <diagram id="C5RBs43oDa-KdzZeNtuy" name="Page-1">
    <mxGraphModel dx="984" dy="628" grid="1" gridSize="10" guides="1" tooltips="1" connect="1" arrows="1" fold="1" page="1" pageScale="1" pageWidth="827" pageHeight="1169" math="0" shadow="0">
      <root>
        <mxCell id="WIyWlLk6GJQsqaUBKTNV-0" />
        <mxCell id="WIyWlLk6GJQsqaUBKTNV-1" parent="WIyWlLk6GJQsqaUBKTNV-0" />
        <mxCell id="ae4u71hEcAD3J7m7quSy-0" value="客服系统库" style="shape=cylinder3;whiteSpace=wrap;html=1;boundedLbl=1;backgroundOutline=1;size=15;labelBackgroundColor=none;fillColor=#F5AB50;strokeColor=#909090;fontColor=#FFFFFF;rounded=1;" vertex="1" parent="WIyWlLk6GJQsqaUBKTNV-1">
          <mxGeometry x="180" y="245" width="60" height="80" as="geometry" />
        </mxCell>
        <mxCell id="ae4u71hEcAD3J7m7quSy-15" style="edgeStyle=orthogonalEdgeStyle;rounded=1;orthogonalLoop=1;jettySize=auto;html=1;entryX=0;entryY=0.5;entryDx=0;entryDy=0;labelBackgroundColor=none;strokeColor=#182E3E;fontColor=default;" edge="1" parent="WIyWlLk6GJQsqaUBKTNV-1" source="ae4u71hEcAD3J7m7quSy-1" target="ae4u71hEcAD3J7m7quSy-14">
          <mxGeometry relative="1" as="geometry">
            <Array as="points">
              <mxPoint x="270" y="450" />
              <mxPoint x="270" y="400" />
            </Array>
          </mxGeometry>
        </mxCell>
        <mxCell id="ae4u71hEcAD3J7m7quSy-21" value="4" style="edgeLabel;html=1;align=center;verticalAlign=middle;resizable=0;points=[];rounded=1;" vertex="1" connectable="0" parent="ae4u71hEcAD3J7m7quSy-15">
          <mxGeometry x="-0.3765" y="-2" relative="1" as="geometry">
            <mxPoint as="offset" />
          </mxGeometry>
        </mxCell>
        <mxCell id="ae4u71hEcAD3J7m7quSy-1" value="报表系统库" style="shape=cylinder3;whiteSpace=wrap;html=1;boundedLbl=1;backgroundOutline=1;size=15;labelBackgroundColor=none;fillColor=#F5AB50;strokeColor=#909090;fontColor=#FFFFFF;rounded=1;" vertex="1" parent="WIyWlLk6GJQsqaUBKTNV-1">
          <mxGeometry x="180" y="410" width="60" height="80" as="geometry" />
        </mxCell>
        <mxCell id="ae4u71hEcAD3J7m7quSy-2" value="结算系统库" style="shape=cylinder3;whiteSpace=wrap;html=1;boundedLbl=1;backgroundOutline=1;size=15;labelBackgroundColor=none;fillColor=#F5AB50;strokeColor=#909090;fontColor=#FFFFFF;rounded=1;" vertex="1" parent="WIyWlLk6GJQsqaUBKTNV-1">
          <mxGeometry x="180" y="690" width="60" height="80" as="geometry" />
        </mxCell>
        <mxCell id="ae4u71hEcAD3J7m7quSy-7" style="edgeStyle=orthogonalEdgeStyle;rounded=1;orthogonalLoop=1;jettySize=auto;html=1;labelBackgroundColor=none;strokeColor=#182E3E;fontColor=default;" edge="1" parent="WIyWlLk6GJQsqaUBKTNV-1" source="ae4u71hEcAD3J7m7quSy-3" target="ae4u71hEcAD3J7m7quSy-6">
          <mxGeometry relative="1" as="geometry" />
        </mxCell>
        <mxCell id="ae4u71hEcAD3J7m7quSy-8" value="1、读取" style="edgeLabel;html=1;align=center;verticalAlign=middle;resizable=0;points=[];labelBackgroundColor=none;fontColor=#1A1A1A;rounded=1;" vertex="1" connectable="0" parent="ae4u71hEcAD3J7m7quSy-7">
          <mxGeometry x="-0.0073" y="-2" relative="1" as="geometry">
            <mxPoint x="-2" y="14" as="offset" />
          </mxGeometry>
        </mxCell>
        <mxCell id="ae4u71hEcAD3J7m7quSy-3" value="数据同步系统" style="rounded=1;whiteSpace=wrap;html=1;labelBackgroundColor=none;fillColor=#F5AB50;strokeColor=#909090;fontColor=#FFFFFF;" vertex="1" parent="WIyWlLk6GJQsqaUBKTNV-1">
          <mxGeometry x="10" y="360" width="100" height="60" as="geometry" />
        </mxCell>
        <mxCell id="ae4u71hEcAD3J7m7quSy-4" style="edgeStyle=orthogonalEdgeStyle;rounded=1;orthogonalLoop=1;jettySize=auto;html=1;entryX=0;entryY=0.5;entryDx=0;entryDy=0;entryPerimeter=0;labelBackgroundColor=none;strokeColor=#182E3E;fontColor=default;" edge="1" parent="WIyWlLk6GJQsqaUBKTNV-1" source="ae4u71hEcAD3J7m7quSy-3" target="ae4u71hEcAD3J7m7quSy-0">
          <mxGeometry relative="1" as="geometry" />
        </mxCell>
        <mxCell id="ae4u71hEcAD3J7m7quSy-5" value="2、读取" style="edgeLabel;html=1;align=center;verticalAlign=middle;resizable=0;points=[];labelBackgroundColor=none;fontColor=#1A1A1A;rounded=1;" vertex="1" connectable="0" parent="ae4u71hEcAD3J7m7quSy-4">
          <mxGeometry x="0.2" y="-2" relative="1" as="geometry">
            <mxPoint as="offset" />
          </mxGeometry>
        </mxCell>
        <mxCell id="ae4u71hEcAD3J7m7quSy-6" value="数据同步任务配置" style="shape=image;html=1;verticalLabelPosition=bottom;verticalAlign=top;imageAspect=1;aspect=fixed;image=img/clipart/Gear_128x128.png;labelBackgroundColor=none;fillColor=#F5AB50;strokeColor=#909090;fontColor=#1A1A1A;rounded=1;" vertex="1" parent="WIyWlLk6GJQsqaUBKTNV-1">
          <mxGeometry x="34" y="230" width="52" height="61" as="geometry" />
        </mxCell>
        <mxCell id="ae4u71hEcAD3J7m7quSy-9" style="edgeStyle=orthogonalEdgeStyle;rounded=1;orthogonalLoop=1;jettySize=auto;html=1;entryX=0;entryY=0.5;entryDx=0;entryDy=0;entryPerimeter=0;labelBackgroundColor=none;strokeColor=#182E3E;fontColor=default;" edge="1" parent="WIyWlLk6GJQsqaUBKTNV-1" source="ae4u71hEcAD3J7m7quSy-3" target="ae4u71hEcAD3J7m7quSy-1">
          <mxGeometry relative="1" as="geometry" />
        </mxCell>
        <mxCell id="ae4u71hEcAD3J7m7quSy-10" value="3、写入" style="edgeLabel;html=1;align=center;verticalAlign=middle;resizable=0;points=[];labelBackgroundColor=none;fontColor=#1A1A1A;rounded=1;" vertex="1" connectable="0" parent="ae4u71hEcAD3J7m7quSy-9">
          <mxGeometry x="0.08" y="-1" relative="1" as="geometry">
            <mxPoint as="offset" />
          </mxGeometry>
        </mxCell>
        <mxCell id="ae4u71hEcAD3J7m7quSy-18" style="edgeStyle=orthogonalEdgeStyle;rounded=1;orthogonalLoop=1;jettySize=auto;html=1;labelBackgroundColor=none;strokeColor=#182E3E;fontColor=default;entryX=0.5;entryY=0;entryDx=0;entryDy=0;entryPerimeter=0;" edge="1" parent="WIyWlLk6GJQsqaUBKTNV-1" source="ae4u71hEcAD3J7m7quSy-11" target="ae4u71hEcAD3J7m7quSy-2">
          <mxGeometry relative="1" as="geometry">
            <Array as="points" />
          </mxGeometry>
        </mxCell>
        <mxCell id="ae4u71hEcAD3J7m7quSy-25" value="7、计算服务报告" style="edgeLabel;html=1;align=center;verticalAlign=middle;resizable=0;points=[];rounded=1;" vertex="1" connectable="0" parent="ae4u71hEcAD3J7m7quSy-18">
          <mxGeometry x="-0.1636" y="-3" relative="1" as="geometry">
            <mxPoint as="offset" />
          </mxGeometry>
        </mxCell>
        <mxCell id="ae4u71hEcAD3J7m7quSy-11" value="结算系统" style="rounded=1;whiteSpace=wrap;html=1;labelBackgroundColor=none;fillColor=#F5AB50;strokeColor=#909090;fontColor=#FFFFFF;" vertex="1" parent="WIyWlLk6GJQsqaUBKTNV-1">
          <mxGeometry x="160" y="560" width="100" height="70" as="geometry" />
        </mxCell>
        <mxCell id="ae4u71hEcAD3J7m7quSy-12" style="edgeStyle=orthogonalEdgeStyle;rounded=1;orthogonalLoop=1;jettySize=auto;html=1;labelBackgroundColor=none;strokeColor=#182E3E;fontColor=default;" edge="1" parent="WIyWlLk6GJQsqaUBKTNV-1" source="ae4u71hEcAD3J7m7quSy-11" target="ae4u71hEcAD3J7m7quSy-1">
          <mxGeometry relative="1" as="geometry" />
        </mxCell>
        <mxCell id="ae4u71hEcAD3J7m7quSy-13" value="6、读取" style="edgeLabel;html=1;align=center;verticalAlign=middle;resizable=0;points=[];labelBackgroundColor=none;fontColor=#1A1A1A;rounded=1;" vertex="1" connectable="0" parent="ae4u71hEcAD3J7m7quSy-12">
          <mxGeometry x="-0.5429" y="-4" relative="1" as="geometry">
            <mxPoint as="offset" />
          </mxGeometry>
        </mxCell>
        <mxCell id="ae4u71hEcAD3J7m7quSy-14" value="生成宽表" style="rounded=1;whiteSpace=wrap;html=1;labelBackgroundColor=none;fillColor=#F5AB50;strokeColor=#909090;fontColor=#FFFFFF;" vertex="1" parent="WIyWlLk6GJQsqaUBKTNV-1">
          <mxGeometry x="340" y="380" width="120" height="40" as="geometry" />
        </mxCell>
        <mxCell id="ae4u71hEcAD3J7m7quSy-20" style="edgeStyle=orthogonalEdgeStyle;curved=1;rounded=1;orthogonalLoop=1;jettySize=auto;html=1;entryX=1;entryY=0.5;entryDx=0;entryDy=0;entryPerimeter=0;" edge="1" parent="WIyWlLk6GJQsqaUBKTNV-1" source="ae4u71hEcAD3J7m7quSy-14" target="ae4u71hEcAD3J7m7quSy-1">
          <mxGeometry relative="1" as="geometry">
            <Array as="points">
              <mxPoint x="400" y="490" />
              <mxPoint x="240" y="490" />
            </Array>
          </mxGeometry>
        </mxCell>
        <mxCell id="ae4u71hEcAD3J7m7quSy-22" value="5" style="edgeLabel;html=1;align=center;verticalAlign=middle;resizable=0;points=[];rounded=1;" vertex="1" connectable="0" parent="ae4u71hEcAD3J7m7quSy-20">
          <mxGeometry x="0.2267" y="10" relative="1" as="geometry">
            <mxPoint as="offset" />
          </mxGeometry>
        </mxCell>
      </root>
    </mxGraphModel>
  </diagram>
</mxfile>
